# xmcd CD database file
#
# Track frame offsets:
#	150
#	26607
#	47362
#	73247
#	99680
#
# Disc length: 1603 seconds
#
# Revision: 0
# Processed by: cddbd v1.5.1PL0 Copyright (c) Steve Scherf et al.
# Submitted via: CDex 1.51
#
DISCID=3d064105
DTITLE=elliott - ひまわり
DYEAR=2001
DGENRE=JPop
TTITLE0=ひまわり
TTITLE1=Party 〜月夜のおにごっこ〜
TTITLE2=あの子が天使になった日
TTITLE3=ひまわり(Inst.)
TTITLE4=Party 〜月夜のおにごっこ〜(Inst.)
EXTD=YEAR: 2001
EXTT0=
EXTT1=
EXTT2=
EXTT3=
EXTT4=
PLAYORDER=
